<?xml version="1.0" encoding="UTF-8" standalone="no"?>
<!-- Created with Inkscape (http://www.inkscape.org/) -->

<svg
   width="256"
   height="256"
   viewBox="0 0 256 256"
   version="1.1"
   id="svg21"
   inkscape:version="1.2.2 (b0a8486541, 2022-12-01)"
   sodipodi:docname="keycaps.svg"
   xmlns:inkscape="http://www.inkscape.org/namespaces/inkscape"
   xmlns:sodipodi="http://sodipodi.sourceforge.net/DTD/sodipodi-0.dtd"
   xmlns:xlink="http://www.w3.org/1999/xlink"
   xmlns="http://www.w3.org/2000/svg"
   xmlns:svg="http://www.w3.org/2000/svg"
   xmlns:rdf="http://www.w3.org/1999/02/22-rdf-syntax-ns#"
   xmlns:cc="http://creativecommons.org/ns#"
   xmlns:dc="http://purl.org/dc/elements/1.1/">
  <title
     id="title173">$4345</title>
  <sodipodi:namedview
     id="namedview23"
     pagecolor="#ffffff"
     bordercolor="#000000"
     borderopacity="0.25"
     inkscape:showpageshadow="2"
     inkscape:pageopacity="0.0"
     inkscape:pagecheckerboard="0"
     inkscape:deskcolor="#d1d1d1"
     inkscape:document-units="mm"
     showgrid="true"
     inkscape:zoom="6.1663417"
     inkscape:cx="-9.4869865"
     inkscape:cy="65.11154"
     inkscape:window-width="3840"
     inkscape:window-height="2091"
     inkscape:window-x="3840"
     inkscape:window-y="32"
     inkscape:window-maximized="1"
     inkscape:current-layer="layer1">
    <inkscape:grid
       type="xygrid"
       id="grid148"
       empspacing="8" />
  </sodipodi:namedview>
  <defs
     id="defs18">
    <linearGradient
       id="linearGradient7797">
      <stop
         style="stop-color:#b5b5b5;stop-opacity:1;"
         offset="0.125"
         id="stop7799" />
      <stop
         style="stop-color:#282828;stop-opacity:1;"
         offset="0.875"
         id="stop7795" />
    </linearGradient>
    <linearGradient
       id="linearGradient4843">
      <stop
         style="stop-color:#252525;stop-opacity:1;"
         offset="0"
         id="stop7783" />
      <stop
         style="stop-color:#595959;stop-opacity:1;"
         offset="1"
         id="stop7785" />
    </linearGradient>
    <radialGradient
       inkscape:collect="always"
       xlink:href="#linearGradient4843"
       id="radialGradient4845"
       cx="60"
       cy="52"
       fx="60"
       fy="52"
       r="16.75"
       gradientUnits="userSpaceOnUse"
       gradientTransform="translate(-40,-32)" />
    <radialGradient
       inkscape:collect="always"
       id="radialGradient7055"
       cx="2.4961262"
       cy="-0.39104858"
       fx="2.4961262"
       fy="-0.39104858"
       r="10"
       gradientUnits="userSpaceOnUse"
       xlink:href="#linearGradient7797"
       gradientTransform="matrix(1.1999999,1.2,-0.60000001,0.59999996,0.77001948,1.2392772)" />
  </defs>
  <g
     inkscape:label="Layer 1"
     inkscape:groupmode="layer"
     id="layer1">
    <rect
       style="fill:#000000;fill-opacity:1;-inkscape-stroke:none;stop-color:#000000"
       id="rect277-3-6"
       width="72"
       height="72"
       x="0"
       y="0"
       ry="2" />
    <path
       id="rect277-3-6-7"
       style="fill:#00afab;fill-opacity:1;stop-color:#000000"
       d="m 18,15 h 36 c 2,0 3,1 3,3 v 36 c 0,2 -1,3 -3,3 H 18 c -2,0 -3,-1 -3,-3 V 18 c 0,-2 1,-3 3,-3 z"
       sodipodi:nodetypes="sssssssss" />
    <g
       id="g9268"
       transform="translate(16,16)">
      <path
         id="rect277"
         style="mix-blend-mode:normal;fill:url(#radialGradient7055);fill-opacity:1;stop-color:#000000"
         d="m 2,0 h 36 c 1,0 2,1 2,2 v 36 c 0,1 -1,2 -2,2 H 2 C 1,40 0,39 0,38 V 2 C 0,1 1,0 2,0 Z"
         sodipodi:nodetypes="sscssssss" />
      <path
         id="rect277-3"
         style="fill:url(#radialGradient4845);fill-opacity:1;stop-color:#000000"
         d="m 9,4 c 3,-1 19,-1 22,0 3,1 4,2 5,5 1,3 1,18 0,21 -1,3 -2,5 -5,6 C 28,37 12,37 9,36 6,35 5,34 4,31 3,28 3,12 4,9 5,6 6,5 9,4 Z"
         sodipodi:nodetypes="zzzzzzzzz"
         inkscape:transform-center-x="0.02453065"
         inkscape:transform-center-y="0.0016492496" />
    </g>
  </g>
  <metadata
     id="metadata171">
    <rdf:RDF>
      <cc:Work
         rdf:about="">
        <dc:title>$4345</dc:title>
      </cc:Work>
    </rdf:RDF>
  </metadata>
</svg>
